HIERARCHY
ROOT Hips
{
	OFFSET 0.000000 0.000000 0.000000
	CHANNELS 6 Xposition Yposition Zposition Yrotation Xrotation Zrotation
	JOINT Chest
	{
		OFFSET 0.000000 -0.009281 11.569106
		CHANNELS 3 Yrotation Xrotation Zrotation
		JOINT Chest2
		{
			OFFSET -0.000000 0.016865 9.269641
			CHANNELS 3 Yrotation Xrotation Zrotation
			JOINT Chest3
			{
				OFFSET -0.000000 0.000001 8.374491
				CHANNELS 3 Yrotation Xrotation Zrotation
				JOINT Chest4
				{
					OFFSET -0.000000 0.000001 8.374493
					CHANNELS 3 Yrotation Xrotation Zrotation
					JOINT Neck
					{
						OFFSET -0.000000 0.000002 12.152554
						CHANNELS 3 Yrotation Xrotation Zrotation
						JOINT Head
						{
							OFFSET -0.000000 0.040101 7.802319
							CHANNELS 3 Yrotation Xrotation Zrotation
							End Site
							{
								OFFSET -0.000000 0.020947 14.853096
							}
						}
					}
					JOINT RightCollar
					{
						OFFSET 2.894404 0.000001 6.791374
						CHANNELS 3 Yrotation Xrotation Zrotation
						JOINT RightShoulder
						{
							OFFSET 13.574684 0.000001 0.000000
							CHANNELS 3 Yrotation Xrotation Zrotation
							JOINT RightElbow
							{
								OFFSET 23.923903 0.000002 0.000000
								CHANNELS 3 Yrotation Xrotation Zrotation
								JOINT RightWrist
								{
									OFFSET 19.846718 0.012767 0.000000
									CHANNELS 3 Yrotation Xrotation Zrotation
									End Site
									{
										OFFSET 14.973145 0.000001 0.000000
									}
								}
							}
						}
					}
					JOINT LeftCollar
					{
						OFFSET -2.894404 0.000001 6.791374
						CHANNELS 3 Yrotation Xrotation Zrotation
						JOINT LeftShoulder
						{
							OFFSET -13.574684 -0.000001 0.000000
							CHANNELS 3 Yrotation Xrotation Zrotation
							JOINT LeftElbow
							{
								OFFSET -23.923903 -0.000002 0.000000
								CHANNELS 3 Yrotation Xrotation Zrotation
								JOINT LeftWrist
								{
									OFFSET -19.846718 0.012763 0.000000
									CHANNELS 3 Yrotation Xrotation Zrotation
									End Site
									{
										OFFSET -14.973145 -0.000001 0.000000
									}
								}
							}
						}
					}
				}
			}
		}
	}
	JOINT RightHip
	{
		OFFSET 9.469263 0.004643 0.045487
		CHANNELS 3 Yrotation Xrotation Zrotation
		JOINT RightKnee
		{
			OFFSET 0.000000 0.002661 -40.478676
			CHANNELS 3 Yrotation Xrotation Zrotation
			JOINT RightAnkle
			{
				OFFSET 0.000000 0.049106 -35.224068
				CHANNELS 3 Yrotation Xrotation Zrotation
				JOINT RightToe
				{
					OFFSET -0.000001 12.539529 -6.151390
					CHANNELS 3 Yrotation Xrotation Zrotation
					End Site
					{
						OFFSET -0.000001 5.044994 -1.291870
					}
				}
			}
		}
	}
	JOINT LeftHip
	{
		OFFSET -9.469263 0.004641 0.045487
		CHANNELS 3 Yrotation Xrotation Zrotation
		JOINT LeftKnee
		{
			OFFSET 0.000000 0.002661 -40.478676
			CHANNELS 3 Yrotation Xrotation Zrotation
			JOINT LeftAnkle
			{
				OFFSET 0.000000 0.049106 -35.224068
				CHANNELS 3 Yrotation Xrotation Zrotation
				JOINT LeftToe
				{
					OFFSET -0.000001 12.539529 -6.151390
					CHANNELS 3 Yrotation Xrotation Zrotation
					End Site
					{
						OFFSET -0.000001 5.044994 -1.291870
					}
				}
			}
		}
	}
}
MOTION
Frames: 13
Frame Time: 0.016667
32.163757 160.223068 82.711189 5.397345 10.376020 68.742965 -0.942041 -2.458141 -1.265974 1.130425 -0.184099 -0.605450 1.130426 -0.184100 -0.605452 0.847638 -0.139195 -0.453748 7.234077 -18.403475 -4.811737 11.705986 2.097665 -6.461947 9.901248 2.146125 -2.198875 50.567408 -5.946703 -19.246858 -6.812458 -25.986437 -11.190320 1.261996 -4.765579 -3.889371 -8.915575 -2.323109 -3.360544 -82.638896 4.329374 -12.402395 -12.347619 15.737130 -26.273212 8.056198 6.106098 -22.566955 10.957261 3.379242 2.306746 3.353944 -5.016370 -2.352418 1.015338 -5.339552 5.028011 1.018109 4.027751 -0.255650 2.623046 -10.421935 -7.528641 2.789185 -38.525853 9.925329 9.796042 -30.137380 -14.225647 5.479673 70.459234 7.028105 
30.685364 161.261292 82.389343 4.690125 11.686099 69.185773 -0.173750 -2.482511 -1.138465 1.231278 -0.181927 -0.564705 1.231280 -0.181927 -0.564708 0.923291 -0.137583 -0.423164 7.585942 -18.179691 -4.907342 12.321178 2.513179 -6.508746 10.099414 2.397142 -1.837391 49.706732 -7.205601 -18.524660 -7.063401 -27.545525 -11.029149 1.338594 -5.896833 -4.416046 -8.964515 -2.025814 -2.917066 -82.748582 3.399179 -11.983778 -12.675742 16.705919 -25.979395 8.545766 6.572198 -22.574846 12.439895 2.704164 2.308407 3.881153 -5.765200 -2.124031 0.202564 -3.851857 4.460494 1.002067 3.749527 -0.562695 4.372931 -7.416934 -7.101612 3.798092 -41.916331 8.013792 11.939831 -32.498908 -11.706796 -8.100296 73.863530 -4.275398 
29.518715 162.029312 82.040421 3.035674 12.955409 69.469096 0.924256 -1.683822 -0.985048 1.321552 -0.241634 -0.531356 1.321551 -0.241634 -0.531358 0.990955 -0.182376 -0.397999 7.912970 -17.849735 -4.983637 12.898765 3.123800 -6.519736 10.138658 2.312353 -1.793678 49.051034 -8.179521 -16.912259 -7.302023 -28.902164 -10.785857 1.055930 -6.615305 -4.672369 -8.816324 -2.177099 -2.625965 -83.098260 2.861068 -12.102842 -12.496833 17.224979 -25.255417 8.899354 7.663539 -22.948304 14.100783 3.222988 3.141057 4.622933 -6.572577 -1.823812 -0.459109 -2.662522 3.193831 0.850072 3.614742 -0.822839 6.075792 -3.517528 -6.853588 4.402702 -44.835797 6.761495 14.129410 -31.743868 -8.689835 -23.038373 72.582262 -16.310171 
28.342009 162.603958 81.707703 1.827880 13.801412 70.149096 1.660188 -1.162436 -1.011382 1.361891 -0.324681 -0.515293 1.361889 -0.324681 -0.515292 1.021141 -0.244661 -0.385742 8.217678 -17.464273 -5.064884 13.435696 3.837141 -6.541200 10.004996 1.835149 -2.041631 48.630363 -8.784290 -14.518172 -7.631604 -30.118508 -10.487846 0.572707 -7.227315 -4.722438 -8.645742 -2.321843 -2.652382 -83.692077 2.769859 -12.034366 -11.855468 17.474228 -24.244883 9.225785 9.028524 -23.675869 15.056939 3.712822 3.962331 5.504527 -7.586603 -3.553629 -1.223595 -0.962384 3.296441 0.832723 3.168348 -0.805663 7.067302 0.426692 -6.921797 4.838358 -46.996226 5.649761 15.965593 -30.581059 -6.645564 -29.841069 69.748205 -20.785849 
27.139021 163.064560 81.408554 1.075221 14.434452 71.156303 2.262521 -0.999444 -1.152217 1.351236 -0.392374 -0.529521 1.351236 -0.392374 -0.529519 1.013083 -0.295454 -0.396273 8.485047 -17.080775 -5.138764 13.908128 4.546454 -6.559461 9.811146 1.395719 -2.463068 48.437834 -9.448525 -11.884030 -8.068703 -31.062150 -10.204723 -0.028700 -7.870079 -4.605486 -8.494208 -2.443751 -2.754778 -84.392895 2.726643 -11.681089 -11.153579 17.919418 -23.197658 9.761667 10.143542 -24.550435 15.759352 3.695287 4.118733 6.002383 -8.088360 -5.064730 -1.769116 0.333500 3.673326 0.805007 2.890652 -0.905651 7.578612 4.293263 -7.797276 4.580282 -48.607881 4.967081 16.777234 -28.816913 -4.850178 -30.279967 65.921366 -19.730502 
25.826366 163.679596 81.157875 0.775989 15.243789 72.443616 3.010772 -1.291775 -1.412910 1.325459 -0.440056 -0.551359 1.325459 -0.440055 -0.551362 0.993692 -0.331240 -0.412566 8.722666 -16.718131 -5.214817 14.326173 5.217479 -6.591392 9.568474 1.187991 -2.920667 48.562816 -10.316913 -9.279410 -8.574269 -31.873252 -10.099189 -0.686934 -8.435572 -4.376632 -8.409524 -2.620225 -2.777658 -84.922672 2.529968 -11.183698 -10.686272 18.739102 -22.179839 10.512389 10.698936 -25.316036 16.755137 2.958299 3.288095 6.180198 -8.233510 -4.437425 -2.744759 1.451548 2.215976 1.115697 2.669149 -0.492886 8.056556 7.781618 -9.472602 3.374707 -49.829908 6.221023 17.932834 -26.219285 -4.307319 -29.033918 61.327982 -17.441612 
24.530787 164.318497 80.925034 0.466422 15.754407 73.418899 3.514744 -1.475859 -1.362726 1.312285 -0.478755 -0.546465 1.312285 -0.478755 -0.546465 0.983780 -0.360242 -0.408818 8.914052 -16.364235 -5.300742 14.656187 5.873858 -6.656774 9.544933 1.212381 -2.966044 48.757900 -11.022908 -7.008117 -9.091164 -32.736619 -10.183196 -1.295250 -8.964628 -4.111807 -8.401186 -2.644716 -2.573881 -85.224519 2.233109 -10.462522 -10.370681 19.593687 -20.966408 11.311362 10.833735 -25.892185 17.649472 2.223458 2.696674 6.139556 -8.235907 -3.546317 -3.737309 2.463365 0.609963 1.435264 2.396073 -0.071855 8.384248 11.402466 -11.294781 1.750792 -50.221568 8.832771 18.666810 -23.872321 -5.033306 -26.866518 56.572025 -14.614858 
23.285954 164.821396 80.704117 0.150098 15.968267 73.992826 3.755517 -1.561313 -0.964688 1.309228 -0.524210 -0.497929 1.309228 -0.524210 -0.497929 0.981488 -0.394226 -0.372321 9.034709 -16.004521 -5.394297 14.852989 6.543302 -6.759930 9.512538 0.915059 -2.814097 49.098340 -11.419754 -4.523182 -9.517333 -33.684946 -10.380432 -1.805767 -9.499521 -3.847856 -8.459784 -2.581222 -2.215736 -85.347360 2.144140 -9.700119 -9.886616 20.044443 -19.325672 11.955321 10.955469 -26.220017 18.026642 1.688071 2.546242 6.285013 -8.443766 -3.665804 -4.329793 3.583902 0.458954 1.438293 2.083501 -0.168687 8.505615 15.115958 -12.577744 -0.064911 -49.947807 11.024556 18.879121 -21.988469 -4.993220 -24.894518 51.375327 -12.166192 
21.998281 165.220016 80.511024 0.196620 16.144062 74.280548 3.932672 -1.972558 -0.266565 1.305350 -0.591247 -0.409929 1.305351 -0.591248 -0.409931 0.978608 -0.444314 -0.306187 9.060902 -15.624667 -5.486919 14.874854 7.252432 -6.893706 9.409886 0.162319 -2.572265 49.553494 -11.551325 -1.602553 -9.837907 -34.607957 -10.612357 -2.298105 -10.013403 -3.542698 -8.560558 -2.427327 -1.852451 -85.459853 2.398496 -8.936100 -8.937871 20.048092 -17.265137 12.214784 11.133790 -26.197020 18.109345 0.744901 2.677422 6.573808 -8.608260 -4.104118 -4.731354 4.695725 0.730342 1.303948 1.775479 -0.417076 8.359368 18.230453 -12.694969 -1.031933 -49.152596 11.539375 18.771134 -20.509998 -3.929405 -23.179227 45.955094 -10.211933 
20.637526 165.635895 80.372742 0.474717 16.240149 74.610562 4.049615 -2.594241 0.397796 1.285832 -0.689419 -0.282568 1.285833 -0.689419 -0.282569 0.964044 -0.517661 -0.210473 9.010065 -15.227483 -5.579048 14.753033 7.995489 -7.054346 9.399519 -0.606147 -2.269815 49.996449 -11.692191 1.480650 -10.076983 -35.276141 -10.795040 -2.886541 -10.456372 -3.141526 -8.616390 -2.110861 -1.646092 -85.689361 3.021090 -8.054820 -7.588794 19.880630 -14.964950 12.217834 11.117303 -25.948268 18.238364 -0.573936 2.826353 6.634811 -8.511401 -4.219416 -5.253890 5.745112 0.294866 1.324678 1.429591 -0.315851 7.957650 20.640912 -11.874572 -0.982893 -47.693141 10.915410 18.404114 -19.053465 -2.874454 -21.077431 40.424181 -8.321409 
19.270294 166.086700 80.242249 0.516355 16.074505 75.113305 4.035210 -2.920032 0.771010 1.258249 -0.798326 -0.131662 1.258249 -0.798326 -0.131661 0.943498 -0.599019 -0.097101 8.886110 -14.859560 -5.650616 14.500599 8.684425 -7.207728 9.468474 -1.094327 -2.068888 50.368018 -12.147822 4.607175 -10.192013 -35.648410 -10.901031 -3.626244 -10.663939 -2.700113 -8.593773 -1.835879 -1.575302 -86.038930 3.906106 -7.122831 -6.054958 19.815945 -12.612140 12.277354 10.825256 -25.632365 18.304111 -1.636864 2.493916 6.510572 -8.346997 -3.978809 -5.829601 6.763921 -0.322859 1.415444 1.093257 -0.044352 7.465237 22.791986 -10.713951 -0.633353 -45.410315 10.332169 17.684167 -17.321163 -2.560576 -18.281310 34.672755 -6.242689 
17.902378 166.505249 80.143654 0.335450 15.705608 75.545225 3.940731 -2.955341 1.028783 1.241787 -0.895106 0.016174 1.241786 -0.895106 0.016172 0.931345 -0.671300 0.013948 8.673748 -14.571910 -5.670396 14.099572 9.222749 -7.305452 9.604679 -1.379693 -1.942944 50.592174 -12.835432 7.828474 -10.175206 -35.884571 -10.924905 -4.519729 -10.647271 -2.260367 -8.577005 -1.545642 -1.436024 -86.318879 4.795435 -5.987413 -4.536804 19.982943 -10.261175 12.535955 10.476876 -25.332760 18.119418 -2.401338 1.815113 6.425883 -8.323253 -3.592080 -6.198810 7.740120 -0.390048 1.360057 0.870310 -0.025515 7.101696 24.745581 -9.088916 -0.383539 -42.445367 9.901987 16.697444 -15.785768 -2.857926 -15.104444 29.079158 -4.338869 
16.521671 166.855484 80.075134 0.067623 15.221406 75.883839 3.805842 -2.804542 1.191891 1.235241 -0.968494 0.141053 1.235241 -0.968494 0.141053 0.926634 -0.726089 0.107745 8.380887 -14.390990 -5.625863 13.569454 9.560344 -7.322525 9.775965 -1.622954 -1.813796 50.719807 -13.445335 11.133167 -10.065753 -36.150221 -10.727258 -5.473283 -10.564587 -1.860357 -8.602732 -1.234676 -1.147904 -86.412698 5.604921 -4.568656 -3.034255 20.339608 -7.907159 12.935142 10.240278 -25.075747 17.710759 -3.025584 0.940144 6.408176 -8.407137 -2.983680 -6.423285 8.607264 -0.240293 1.219051 0.770381 -0.135573 6.841810 26.392420 -7.130563 -0.240278 -38.853603 9.228893 15.442877 -14.974105 -3.482019 -11.717540 23.977685 -2.796326 
